<svg width="16" height="10" viewBox="0 0 16 10" fill="none" xmlns="http://www.w3.org/2000/svg">
<path d="M7.05864 8.925L1.06364 2.0725C0.356142 1.26625 0.931142 4.59632e-07 2.00489 4.59632e-07H13.9949C14.2352 -0.000205574 14.4705 0.0688598 14.6725 0.198926C14.8746 0.328992 15.0349 0.514546 15.1342 0.733366C15.2335 0.952186 15.2677 1.195 15.2325 1.43272C15.1974 1.67045 15.0945 1.89301 14.9361 2.07375L8.94114 8.92375C8.82381 9.05801 8.67912 9.16562 8.51678 9.23935C8.35443 9.31308 8.17819 9.35122 7.99989 9.35122C7.82159 9.35122 7.64535 9.31308 7.48301 9.23935C7.32066 9.16562 7.17597 9.05801 7.05864 8.92375V8.925Z" fill="#3E3245"/>
</svg>
