<svg width="18" height="21" viewBox="0 0 18 21" fill="none" xmlns="http://www.w3.org/2000/svg">
<path d="M16.8948 4.35967C17.2677 4.35967 17.6123 4.47863 17.8969 4.67791L17.2499 1.76631C17.099 0.983138 16.5386 0.5 15.7874 0.5H2.51962C1.8477 0.5 1.26454 1.02034 1.10103 1.76562L0.499268 4.474C0.689081 4.40348 0.891553 4.35963 1.10525 4.35963H16.8948V4.35967ZM14.8333 1.42107C15.3906 1.42107 15.8421 1.87265 15.8421 2.42983C15.8421 2.98702 15.3905 3.4386 14.8333 3.4386C14.2762 3.4386 13.8246 2.98702 13.8246 2.42983C13.8246 1.87265 14.2761 1.42107 14.8333 1.42107ZM11.6754 1.42107C12.2326 1.42107 12.6842 1.87265 12.6842 2.42983C12.6842 2.98702 12.2326 3.4386 11.6754 3.4386C11.1182 3.4386 10.6667 2.98702 10.6667 2.42983C10.6667 1.87265 11.1182 1.42107 11.6754 1.42107ZM7.77191 1.55265H9.52628V2.25441H7.77191V1.55265ZM7.77191 2.95616H9.52628V3.65791H7.77191V2.95616Z" fill="#3E3245"/>
<path d="M16.8948 4.35967C17.2677 4.35967 17.6123 4.47863 17.8969 4.67791L17.2499 1.76631C17.099 0.983138 16.5386 0.5 15.7874 0.5H2.51962C1.8477 0.5 1.26454 1.02034 1.10103 1.76562L0.499268 4.474C0.689081 4.40348 0.891553 4.35963 1.10525 4.35963H16.8948V4.35967ZM14.8333 1.42107C15.3906 1.42107 15.8421 1.87265 15.8421 2.42983C15.8421 2.98702 15.3905 3.4386 14.8333 3.4386C14.2762 3.4386 13.8246 2.98702 13.8246 2.42983C13.8246 1.87265 14.2761 1.42107 14.8333 1.42107ZM11.6754 1.42107C12.2326 1.42107 12.6842 1.87265 12.6842 2.42983C12.6842 2.98702 12.2326 3.4386 11.6754 3.4386C11.1182 3.4386 10.6667 2.98702 10.6667 2.42983C10.6667 1.87265 11.1182 1.42107 11.6754 1.42107ZM7.77191 1.55265H9.52628V2.25441H7.77191V1.55265ZM7.77191 2.95616H9.52628V3.65791H7.77191V2.95616Z" fill="white" fill-opacity="0.2"/>
<path d="M1.05258 20.3761H16.842C17.4224 20.3761 17.8947 19.9038 17.8947 19.3235V5.99016C17.8947 5.85051 17.8659 5.71753 17.8164 5.59542C17.8034 5.56313 17.7856 5.53333 17.7694 5.50281C17.7294 5.42703 17.6817 5.35717 17.6252 5.29369C17.5933 5.25755 17.5585 5.22456 17.522 5.19334C17.5115 5.27193 17.4961 5.34946 17.4775 5.4263C17.4385 5.58702 17.382 5.74208 17.3087 5.88562C17.2926 5.91755 17.2764 5.94947 17.2585 5.98C17.0153 6.3958 16.6206 6.69192 16.0869 6.69192H2.50944C2.05331 6.69192 1.59329 6.45437 1.2512 6.10384C1.22592 6.07786 1.2017 6.05122 1.17752 6.02385C1.03049 5.85752 0.910832 5.66947 0.828052 5.47158C0.763839 5.31861 0.72245 5.15998 0.708763 5C0.624186 5.02946 0.543131 5.06561 0.470185 5.11437C0.406669 5.15683 0.349134 5.20629 0.29615 5.26103C0.266685 5.29156 0.241073 5.32525 0.215462 5.35893C0.0821191 5.53543 2.13798e-09 5.75261 2.13798e-09 5.99016V19.3235C-3.66909e-05 19.9038 0.47224 20.3761 1.05258 20.3761ZM9.00591 8.18316C12.0049 8.18316 14.4445 10.6228 14.4445 13.6218C14.4445 16.6207 12.0049 19.0604 9.00591 19.0604C6.00698 19.0604 3.56734 16.6207 3.56734 13.6218C3.56734 10.6228 6.00695 8.18316 9.00591 8.18316Z" fill="#3E3245"/>
<path d="M1.05258 20.3761H16.842C17.4224 20.3761 17.8947 19.9038 17.8947 19.3235V5.99016C17.8947 5.85051 17.8659 5.71753 17.8164 5.59542C17.8034 5.56313 17.7856 5.53333 17.7694 5.50281C17.7294 5.42703 17.6817 5.35717 17.6252 5.29369C17.5933 5.25755 17.5585 5.22456 17.522 5.19334C17.5115 5.27193 17.4961 5.34946 17.4775 5.4263C17.4385 5.58702 17.382 5.74208 17.3087 5.88562C17.2926 5.91755 17.2764 5.94947 17.2585 5.98C17.0153 6.3958 16.6206 6.69192 16.0869 6.69192H2.50944C2.05331 6.69192 1.59329 6.45437 1.2512 6.10384C1.22592 6.07786 1.2017 6.05122 1.17752 6.02385C1.03049 5.85752 0.910832 5.66947 0.828052 5.47158C0.763839 5.31861 0.72245 5.15998 0.708763 5C0.624186 5.02946 0.543131 5.06561 0.470185 5.11437C0.406669 5.15683 0.349134 5.20629 0.29615 5.26103C0.266685 5.29156 0.241073 5.32525 0.215462 5.35893C0.0821191 5.53543 2.13798e-09 5.75261 2.13798e-09 5.99016V19.3235C-3.66909e-05 19.9038 0.47224 20.3761 1.05258 20.3761ZM9.00591 8.18316C12.0049 8.18316 14.4445 10.6228 14.4445 13.6218C14.4445 16.6207 12.0049 19.0604 9.00591 19.0604C6.00698 19.0604 3.56734 16.6207 3.56734 13.6218C3.56734 10.6228 6.00695 8.18316 9.00591 8.18316Z" fill="white" fill-opacity="0.2"/>
<path d="M2.56209 6.11414H16.0176H16.1397C16.206 6.11414 16.267 6.10328 16.3242 6.08398C16.6993 5.95801 16.8769 5.4559 16.8916 5.06152H1.46313C1.50137 5.56466 2.06277 6.11414 2.56209 6.11414Z" fill="#3E3245"/>
<path d="M2.56209 6.11414H16.0176H16.1397C16.206 6.11414 16.267 6.10328 16.3242 6.08398C16.6993 5.95801 16.8769 5.4559 16.8916 5.06152H1.46313C1.50137 5.56466 2.06277 6.11414 2.56209 6.11414Z" fill="white" fill-opacity="0.2"/>
<circle cx="9" cy="13.7002" r="4.5" fill="#3E3245"/>
<circle cx="9" cy="13.7002" r="4.5" fill="white" fill-opacity="0.2"/>
</svg>
