<svg width="201" height="62" viewBox="0 0 201 62" fill="none" xmlns="http://www.w3.org/2000/svg">
<path d="M76.7189 33.2344H86.672V37H72.0312V14.25H76.7189V33.2344ZM98.3751 37C98.1668 36.5938 98.0157 36.0885 97.922 35.4844C96.8282 36.7031 95.4062 37.3125 93.6562 37.3125C92 37.3125 90.625 36.8333 89.5312 35.875C88.448 34.9167 87.9062 33.7083 87.9062 32.25C87.9062 30.4583 88.5678 29.0833 89.8907 28.125C91.2241 27.1667 93.1458 26.6823 95.6562 26.6719H97.7345V25.7031C97.7345 24.9219 97.5313 24.2969 97.1251 23.8281C96.7293 23.3594 96.0991 23.125 95.2345 23.125C94.4741 23.125 93.8751 23.3073 93.4376 23.6719C93.0105 24.0365 92.797 24.5365 92.797 25.1719H88.2812C88.2812 24.1927 88.5834 23.2865 89.1876 22.4531C89.7918 21.6198 90.6459 20.9688 91.7501 20.5C92.8543 20.0208 94.0939 19.7812 95.4689 19.7812C97.5522 19.7812 99.2031 20.3073 100.422 21.3594C101.651 22.401 102.266 23.8698 102.266 25.7656V33.0938C102.276 34.6979 102.5 35.9115 102.938 36.7344V37H98.3751ZM94.6407 33.8594C95.3074 33.8594 95.922 33.7135 96.4845 33.4219C97.047 33.1198 97.4636 32.7188 97.7345 32.2188V29.3125H96.047C93.7866 29.3125 92.5834 30.0938 92.4376 31.6562L92.422 31.9219C92.422 32.4844 92.6199 32.9479 93.0157 33.3125C93.4116 33.6771 93.9532 33.8594 94.6407 33.8594ZM115.359 35.2812C114.245 36.6354 112.703 37.3125 110.734 37.3125C108.922 37.3125 107.536 36.7917 106.578 35.75C105.63 34.7083 105.146 33.1823 105.125 31.1719V20.0938H109.641V31.0156C109.641 32.776 110.443 33.6562 112.047 33.6562C113.578 33.6562 114.63 33.125 115.203 32.0625V20.0938H119.734V37H115.484L115.359 35.2812ZM126.797 20.0938L126.938 22.0469C128.146 20.5365 129.766 19.7812 131.797 19.7812C133.589 19.7812 134.922 20.3073 135.797 21.3594C136.672 22.4115 137.12 23.9844 137.141 26.0781V37H132.625V26.1875C132.625 25.2292 132.417 24.5365 132 24.1094C131.583 23.6719 130.891 23.4531 129.922 23.4531C128.651 23.4531 127.698 23.9948 127.062 25.0781V37H122.547V20.0938H126.797ZM139.375 28.4219C139.375 25.7865 139.964 23.6875 141.141 22.125C142.328 20.5625 143.948 19.7812 146 19.7812C147.646 19.7812 149.005 20.3958 150.078 21.625V13H154.609V37H150.531L150.312 35.2031C149.188 36.6094 147.74 37.3125 145.969 37.3125C143.979 37.3125 142.38 36.5312 141.172 34.9688C139.974 33.3958 139.375 31.2135 139.375 28.4219ZM143.891 28.75C143.891 30.3333 144.167 31.5469 144.719 32.3906C145.271 33.2344 146.073 33.6562 147.125 33.6562C148.521 33.6562 149.505 33.0677 150.078 31.8906V25.2188C149.516 24.0417 148.542 23.4531 147.156 23.4531C144.979 23.4531 143.891 25.2188 143.891 28.75ZM167.109 24.3281C166.495 24.2448 165.953 24.2031 165.484 24.2031C163.776 24.2031 162.656 24.7812 162.125 25.9375V37H157.609V20.0938H161.875L162 22.1094C162.906 20.5573 164.161 19.7812 165.766 19.7812C166.266 19.7812 166.734 19.849 167.172 19.9844L167.109 24.3281ZM175.391 30.6094L178.516 20.0938H183.359L176.562 39.625L176.188 40.5156C175.177 42.724 173.51 43.8281 171.188 43.8281C170.531 43.8281 169.865 43.7292 169.188 43.5312V40.1094L169.875 40.125C170.729 40.125 171.365 39.9948 171.781 39.7344C172.208 39.474 172.542 39.0417 172.781 38.4375L173.312 37.0469L167.391 20.0938H172.25L175.391 30.6094Z" fill="#524A79"/>
<path d="M76.6057 42.1201C77.8777 42.1201 78.8857 42.4381 79.6297 43.0741C80.3857 43.7101 80.7637 44.5681 80.7637 45.6481C80.7637 46.5121 80.5297 47.2261 80.0617 47.7901C79.6057 48.3421 78.9757 48.7261 78.1717 48.9421L81.4657 54.0001H79.2517L76.2277 49.2481H73.6717V54.0001H71.7637V42.1201H76.6057ZM76.4617 47.6461C77.9977 47.6461 78.7657 46.9981 78.7657 45.7021C78.7657 44.4061 77.9977 43.7581 76.4617 43.7581H73.6717V47.6461H76.4617ZM86.8874 44.8201C87.7634 44.8201 88.5374 45.0061 89.2094 45.3781C89.8814 45.7501 90.4034 46.2901 90.7754 46.9981C91.1594 47.6941 91.3514 48.5281 91.3514 49.5001C91.3514 50.4721 91.1594 51.3121 90.7754 52.0201C90.4034 52.7161 89.8814 53.2501 89.2094 53.6221C88.5374 53.9941 87.7634 54.1801 86.8874 54.1801C86.0114 54.1801 85.2374 53.9941 84.5654 53.6221C83.8934 53.2501 83.3654 52.7161 82.9814 52.0201C82.5974 51.3121 82.4054 50.4721 82.4054 49.5001C82.4054 48.5281 82.5974 47.6941 82.9814 46.9981C83.3654 46.2901 83.8934 45.7501 84.5654 45.3781C85.2374 45.0061 86.0114 44.8201 86.8874 44.8201ZM86.8874 46.3321C86.0954 46.3321 85.4714 46.6081 85.0154 47.1601C84.5594 47.7001 84.3314 48.4801 84.3314 49.5001C84.3314 50.5201 84.5594 51.3061 85.0154 51.8581C85.4714 52.3981 86.0954 52.6681 86.8874 52.6681C87.6794 52.6681 88.2974 52.3981 88.7414 51.8581C89.1974 51.3061 89.4254 50.5201 89.4254 49.5001C89.4254 48.4801 89.1974 47.7001 88.7414 47.1601C88.2974 46.6081 87.6794 46.3321 86.8874 46.3321ZM97.3203 44.8201C98.1963 44.8201 98.9703 45.0061 99.6423 45.3781C100.315 45.7501 100.837 46.2901 101.209 46.9981C101.593 47.6941 101.785 48.5281 101.785 49.5001C101.785 50.4721 101.593 51.3121 101.209 52.0201C100.837 52.7161 100.315 53.2501 99.6423 53.6221C98.9703 53.9941 98.1963 54.1801 97.3203 54.1801C96.4443 54.1801 95.6703 53.9941 94.9983 53.6221C94.3263 53.2501 93.7983 52.7161 93.4143 52.0201C93.0303 51.3121 92.8383 50.4721 92.8383 49.5001C92.8383 48.5281 93.0303 47.6941 93.4143 46.9981C93.7983 46.2901 94.3263 45.7501 94.9983 45.3781C95.6703 45.0061 96.4443 44.8201 97.3203 44.8201ZM97.3203 46.3321C96.5283 46.3321 95.9043 46.6081 95.4483 47.1601C94.9923 47.7001 94.7643 48.4801 94.7643 49.5001C94.7643 50.5201 94.9923 51.3061 95.4483 51.8581C95.9043 52.3981 96.5283 52.6681 97.3203 52.6681C98.1123 52.6681 98.7303 52.3981 99.1743 51.8581C99.6303 51.3061 99.8583 50.5201 99.8583 49.5001C99.8583 48.4801 99.6303 47.7001 99.1743 47.1601C98.7303 46.6081 98.1123 46.3321 97.3203 46.3321ZM103.848 54.0001V45.0001H105.558L105.648 46.5121C105.96 45.9361 106.374 45.5101 106.89 45.2341C107.418 44.9581 107.976 44.8201 108.564 44.8201C109.212 44.8201 109.806 44.9701 110.346 45.2701C110.898 45.5581 111.312 45.9961 111.588 46.5841C111.78 46.1881 112.044 45.8581 112.38 45.5941C112.716 45.3301 113.088 45.1381 113.496 45.0181C113.904 44.8861 114.306 44.8201 114.702 44.8201C115.278 44.8201 115.818 44.9401 116.322 45.1801C116.826 45.4201 117.234 45.7861 117.546 46.2781C117.858 46.7701 118.014 47.4001 118.014 48.1681V54.0001H116.088V48.4741C116.088 47.7301 115.908 47.2021 115.548 46.8901C115.2 46.5661 114.762 46.4041 114.234 46.4041C113.61 46.4041 113.064 46.6381 112.596 47.1061C112.128 47.5621 111.894 48.2281 111.894 49.1041V54.0001H109.968V48.4741C109.968 47.7301 109.788 47.2021 109.428 46.8901C109.08 46.5661 108.642 46.4041 108.114 46.4041C107.754 46.4041 107.394 46.5001 107.034 46.6921C106.674 46.8841 106.374 47.1841 106.134 47.5921C105.894 48.0001 105.774 48.5401 105.774 49.2121V54.0001H103.848Z" fill="#97D8EC"/>
<path d="M29.7939 58.1259C44.1557 58.1259 55.8378 46.4436 55.8378 32.082C55.8378 17.7204 44.1557 6.03809 29.7939 6.03809C15.4323 6.03809 3.75 17.7204 3.75 32.082C3.75 46.4436 15.4323 58.1259 29.7939 58.1259ZM42.3806 18.3224C44.1306 18.3224 45.5495 19.7412 45.5495 21.4913C45.5495 23.2416 44.1306 24.6604 42.3806 24.6604C40.6303 24.6604 39.2115 23.2416 39.2115 21.4913C39.2134 19.7412 40.6301 18.3224 42.3806 18.3224ZM31.9629 12.0717C33.713 12.0717 35.1318 13.4906 35.1318 15.2406C35.1318 16.9909 33.713 18.4098 31.9629 18.4098C30.2127 18.4098 28.7938 16.9909 28.7938 15.2406C28.796 13.4906 30.2127 12.0717 31.9629 12.0717ZM10.6277 29.1087C12.805 27.4918 16.8928 25.1417 22.2767 25.1938C26.223 25.2313 28.1752 26.6397 30.1525 28.1023C30.1275 27.9191 30.0961 27.7378 30.0961 27.5483C30.0961 25.2583 31.9527 23.4021 34.2422 23.4021C36.5322 23.4021 38.3883 25.2585 38.3883 27.5483C38.3883 29.0754 37.5549 30.3942 36.3256 31.113C37.1529 31.2715 38.0674 31.3734 39.1217 31.3922C44.7161 31.49 47.2431 28.6209 48.3641 26.4105C48.9123 28.2065 49.2123 30.1088 49.2123 32.0839C49.2123 42.8078 40.5197 51.5 29.7961 51.5C19.0722 51.5 10.3798 42.8075 10.3798 32.0839C10.3756 31.0671 10.4776 30.0796 10.6277 29.1087Z" fill="#524A79"/>
</svg>
