<svg height="512" viewBox="0 0 512 512" width="512" xmlns="http://www.w3.org/2000/svg"><g><g><path d="m64 112h384v384h-384z" fill="#e0e0e2"/><path d="m64 16h384v96h-384z" fill="#3e3d42"/><circle cx="256" cy="304" fill="#787680" r="128"/><path d="m352 304s-48 24-96 0-96 0-96 0a96 96 0 0 1 192 0z" fill="#78b9eb"/><path d="m352 304a96 96 0 0 1 -192 0s48-24 96 0 96 0 96 0z" fill="#006df0"/><path d="m384 240h24v112h-24z" fill="#3e3d42"/><path d="m96 48h32v32h-32z" fill="#91cc04"/><path d="m152 48h32v32h-32z" fill="#91cc04"/><path d="m288 48h128v32h-128z" fill="#ffda44"/></g><g><path d="m448 8h-384a8 8 0 0 0 -8 8v480a8 8 0 0 0 8 8h384a8 8 0 0 0 8-8v-480a8 8 0 0 0 -8-8zm-8 480h-368v-368h368zm0-384h-368v-80h368z"/><path d="m408 232h-24a8 8 0 0 0 -8 8v.06a136.126 136.126 0 0 0 -120-72.06c-74.99 0-136 61.01-136 136s61.01 136 136 136a136.191 136.191 0 0 0 124.33-80.9 7.935 7.935 0 0 0 3.67.9h24a8 8 0 0 0 8-8v-112a8 8 0 0 0 -8-8zm-152 192a120 120 0 1 1 120-120 120.134 120.134 0 0 1 -120 120zm144-80h-8v-96h8z"/><path d="m256 200a104 104 0 1 0 104 104 104.112 104.112 0 0 0 -104-104zm0 16a88.11 88.11 0 0 1 87.84 82.78c-12.53 4.85-48.74 15.83-84.26-1.94-36.46-18.22-72.43-10.93-90.75-4.9a88.132 88.132 0 0 1 87.17-75.94zm0 176a88.11 88.11 0 0 1 -87.84-82.78c12.53-4.85 48.74-15.83 84.26 1.94a110.558 110.558 0 0 0 49.88 11.56 132.394 132.394 0 0 0 40.87-6.66 88.132 88.132 0 0 1 -87.17 75.94z"/><path d="m128 40h-32a8 8 0 0 0 -8 8v32a8 8 0 0 0 8 8h32a8 8 0 0 0 8-8v-32a8 8 0 0 0 -8-8zm-8 32h-16v-16h16z"/><path d="m184 40h-32a8 8 0 0 0 -8 8v32a8 8 0 0 0 8 8h32a8 8 0 0 0 8-8v-32a8 8 0 0 0 -8-8zm-8 32h-16v-16h16z"/><path d="m416 40h-128a8 8 0 0 0 -8 8v32a8 8 0 0 0 8 8h128a8 8 0 0 0 8-8v-32a8 8 0 0 0 -8-8zm-8 32h-112v-16h112z"/></g></g></svg>