<svg width="633" height="633" viewBox="0 0 633 633" fill="none" xmlns="http://www.w3.org/2000/svg">
<g filter="url(#filter0_d)">
<rect x="100" y="96" width="432.692" height="432.692" rx="40" fill="#EBEBEB"/>
</g>
<g filter="url(#filter1_d)">
<rect x="132.14" y="117.204" width="131.526" height="30.9475" rx="15.4738" fill="#524A79"/>
<rect x="132.14" y="117.204" width="131.526" height="30.9475" rx="15.4738" fill="white" fill-opacity="0.4"/>
</g>
<circle cx="408.454" cy="127.009" r="10.9602" transform="rotate(15 408.454 127.009)" fill="#FF7E7E"/>
<circle cx="408.454" cy="127.009" r="10.9602" transform="rotate(15 408.454 127.009)" fill="white" fill-opacity="0.2"/>
<circle cx="243.513" cy="475.287" r="4.56676" transform="rotate(-15 243.513 475.287)" fill="#F6F6F6"/>
<circle cx="268.213" cy="475.287" r="4.56676" transform="rotate(-15 268.213 475.287)" fill="#F6F6F6"/>
<circle cx="292.918" cy="475.287" r="4.56676" transform="rotate(-15 292.918 475.287)" fill="#F6F6F6"/>
<circle cx="316.674" cy="475.287" r="4.56676" transform="rotate(-15 316.674 475.287)" fill="#F6F6F6"/>
<circle cx="340.195" cy="475.285" r="4.56676" transform="rotate(-15 340.195 475.285)" fill="#F6F6F6"/>
<circle cx="364.66" cy="475.287" r="4.56676" transform="rotate(-15 364.66 475.287)" fill="#F6F6F6"/>
<circle cx="389.363" cy="475.287" r="4.56676" transform="rotate(-15 389.363 475.287)" fill="#F6F6F6"/>
<circle cx="450.112" cy="126.824" r="10.9602" transform="rotate(15 450.112 126.824)" fill="#29B95F"/>
<path d="M263.827 335.05C245.117 335.711 227.306 330.781 220.739 328.233L216.248 344.995L236.892 375.584L280.923 405.348L338.781 409.977L366.423 393.271C385.078 381.88 419.727 353.847 409.091 332.842C398.456 311.837 387.629 298.251 375.647 305.915C367.656 313.387 349.469 327.74 340.647 325.376C329.619 322.421 323.697 305.705 299.623 314.384C275.55 323.062 287.215 334.225 263.827 335.05Z" fill="#97D8EC"/>
<path d="M433.391 330.37C416.549 393.224 351.943 430.525 289.089 413.683C226.235 396.841 188.934 332.235 205.776 269.381C222.618 206.527 287.224 169.226 350.078 186.068C412.932 202.91 450.233 267.516 433.391 330.37ZM219.695 273.11C204.913 328.277 237.651 384.982 292.818 399.764C347.985 414.546 404.69 381.808 419.472 326.641C434.254 271.474 401.516 214.769 346.349 199.987C291.182 185.205 234.477 217.943 219.695 273.11Z" fill="#524A79"/>
<path d="M303.035 193.216C316.316 190.175 330.097 189.883 343.592 192.357C357.087 194.831 370.032 200.023 381.688 207.636C393.343 215.248 403.481 225.133 411.522 236.726C419.564 248.319 425.351 261.393 428.554 275.2C431.757 289.008 432.313 303.28 430.19 317.201C428.067 331.121 423.306 344.418 416.18 356.333C409.054 368.247 399.703 378.545 388.659 386.639C377.615 394.733 365.095 400.464 351.815 403.506L343.104 365.953C351.641 363.998 359.689 360.314 366.789 355.11C373.889 349.907 379.9 343.287 384.481 335.628C389.062 327.969 392.122 319.421 393.487 310.472C394.852 301.523 394.495 292.349 392.436 283.472C390.377 274.596 386.656 266.192 381.487 258.739C376.318 251.287 369.801 244.932 362.308 240.038C354.815 235.144 346.493 231.807 337.818 230.216C329.143 228.626 320.283 228.814 311.746 230.769L303.035 193.216Z" fill="#524A79"/>
<defs>
<filter id="filter0_d" x="0" y="0" width="632.692" height="632.692" filterUnits="userSpaceOnUse" color-interpolation-filters="sRGB">
<feFlood flood-opacity="0" result="BackgroundImageFix"/>
<feColorMatrix in="SourceAlpha" type="matrix" values="0 0 0 0 0 0 0 0 0 0 0 0 0 0 0 0 0 0 127 0"/>
<feOffset dy="4"/>
<feGaussianBlur stdDeviation="50"/>
<feColorMatrix type="matrix" values="0 0 0 0 0.321569 0 0 0 0 0.290196 0 0 0 0 0.47451 0 0 0 0.03 0"/>
<feBlend mode="normal" in2="BackgroundImageFix" result="effect1_dropShadow"/>
<feBlend mode="normal" in="SourceGraphic" in2="effect1_dropShadow" result="shape"/>
</filter>
<filter id="filter1_d" x="32.1396" y="21.2036" width="331.526" height="230.948" filterUnits="userSpaceOnUse" color-interpolation-filters="sRGB">
<feFlood flood-opacity="0" result="BackgroundImageFix"/>
<feColorMatrix in="SourceAlpha" type="matrix" values="0 0 0 0 0 0 0 0 0 0 0 0 0 0 0 0 0 0 127 0"/>
<feOffset dy="4"/>
<feGaussianBlur stdDeviation="50"/>
<feColorMatrix type="matrix" values="0 0 0 0 0.321569 0 0 0 0 0.290196 0 0 0 0 0.47451 0 0 0 0.03 0"/>
<feBlend mode="normal" in2="BackgroundImageFix" result="effect1_dropShadow"/>
<feBlend mode="normal" in="SourceGraphic" in2="effect1_dropShadow" result="shape"/>
</filter>
</defs>
</svg>
