<svg width="989" height="953" viewBox="0 0 989 953" fill="none" xmlns="http://www.w3.org/2000/svg">
<path d="M297.645 14.4729C319.218 30.6673 343.994 42.3266 367.905 51.3137C393.234 59.2682 416.467 64.3481 440.253 65.7231C452.578 67.7467 462.992 65.6608 474.268 66.2471C484.497 65.3962 494.726 64.5452 505.139 62.4592C524.733 58.085 292.036 9.75623 297.645 14.4729ZM178.53 8.83272L179.578 10.27L181.674 13.1447L184.818 17.4566L191.291 24.8455L197.763 32.2344L205.468 39.8257C211.077 44.5424 215.454 49.0567 221.063 53.7734C226.672 58.49 231.233 61.7694 236.842 66.486C258.415 82.6804 283.19 94.3398 307.102 103.327C332.431 111.281 355.664 116.361 379.45 117.736C391.775 119.76 402.188 117.674 413.465 118.26C423.694 117.409 433.923 116.558 444.336 114.472C463.93 110.098 481.244 104.084 496.092 97.6656C504.041 95.175 510.756 92.482 516.424 88.3516C523.325 84.4236 528.808 81.5283 533.059 78.4305C542.793 72.4374 550.062 66.0395 554.313 62.9418C558.748 58.6091 558.933 57.3741 553.45 60.2695C547.966 63.1649 541.066 67.0928 530.284 71.6487C524.985 73.3091 519.686 74.9696 512.97 77.6626C507.487 80.558 499.723 81.8137 493.007 84.5067C477.295 88.2531 460.535 90.5621 442.542 92.6688C432.313 93.5198 423.501 93.3382 413.457 92.9542C403.413 92.5703 393.368 92.1863 383.508 90.5674C362.556 87.1272 341.973 81.2171 320.526 72.6348C299.079 64.0524 279.602 50.7326 260.126 37.4129L246.627 26.3399C242.066 23.0605 238.922 18.7486 234.545 14.2343L227.888 8.08029C227.888 8.08029 163.673 -10.0547 178.53 8.83272ZM138.193 84.45L145.898 92.0413C151.507 96.7579 155.883 101.272 161.492 105.989C167.101 110.706 171.662 113.985 177.271 118.702C198.844 134.896 223.619 146.555 247.531 155.542C272.86 163.497 296.093 168.577 319.879 169.952C332.204 171.975 342.617 169.889 353.894 170.476C364.123 169.625 374.352 168.774 384.765 166.688C404.359 162.314 421.673 156.3 436.522 149.881C444.47 147.39 451.186 144.697 456.854 140.567C463.754 136.639 469.237 133.744 473.488 130.646C483.222 124.653 490.491 118.255 494.742 115.157C499.178 110.825 502.012 108.759 502.012 108.759C502.012 108.759 499.362 109.59 493.879 112.485C488.395 115.38 481.495 119.308 470.713 123.864C465.414 125.525 460.115 127.185 453.399 129.878C447.916 132.773 440.152 134.029 433.436 136.722C417.724 140.469 400.964 142.778 382.971 144.884C372.742 145.735 363.93 145.554 353.886 145.17C343.842 144.786 333.797 144.402 323.937 142.783C302.985 139.343 282.402 133.433 260.955 124.85C239.508 116.268 220.031 102.948 200.555 89.6284L187.056 78.5554C182.495 75.276 179.351 70.9641 174.975 66.4498L168.317 60.2958L161.845 52.9069L155.372 45.518L152.228 41.206L151.18 39.7687L150.132 38.3314C133.179 16.5693 138.193 84.45 138.193 84.45ZM609.037 76.9879C601.089 79.4786 594.373 82.1716 588.705 86.3019C581.805 90.2299 577.554 93.3277 572.071 96.2231C562.337 102.216 555.067 108.614 550.816 111.712C546.381 116.045 543.547 118.11 543.547 118.11C543.547 118.11 546.197 117.279 551.68 114.384C557.163 111.489 564.064 107.561 574.846 103.005C580.145 101.344 585.444 99.684 592.16 96.991C597.643 94.0956 605.407 92.8399 612.123 90.1469C627.835 86.4005 644.595 84.0915 662.588 81.9848C672.817 81.1338 681.628 81.3154 691.673 81.6993C701.717 82.0833 711.761 82.4673 721.621 84.0862C742.574 87.5264 763.157 93.4365 784.604 102.019C806.051 110.601 825.712 122.686 845.004 137.241C864.296 151.795 880.57 169.65 895.427 188.538L896.475 189.975L898.571 192.85L901.715 197.162L908.187 204.55L914.66 211.939L922.365 219.531C927.974 224.247 932.351 228.762 937.96 233.478C943.569 238.195 948.13 241.474 953.739 246.191C975.312 262.385 996.499 230.438 977.022 217.118L963.524 206.045C958.963 202.765 955.819 198.454 951.442 193.939L944.785 187.785L938.312 180.396L931.84 173.007L928.696 168.695L927.648 167.258L926.6 165.821C909.772 144.115 890.161 124.725 868.287 108.168C846.715 91.9731 623.886 70.5693 609.037 76.9879ZM116.468 170.715C138.041 186.909 162.816 198.568 186.728 207.556C212.057 215.51 235.29 220.59 259.076 221.965C271.401 223.989 281.814 221.903 293.091 222.489C303.32 221.638 313.549 220.787 323.962 218.701C343.556 214.327 360.87 208.313 375.718 201.894C383.667 199.404 390.382 196.711 396.05 192.58C402.951 188.652 408.434 185.757 412.685 182.659C422.419 176.666 429.688 170.268 433.939 167.17C438.374 162.838 441.208 160.773 441.208 160.773C441.208 160.773 438.559 161.603 433.076 164.498C427.592 167.394 420.692 171.322 409.91 175.877C404.611 177.538 399.312 179.198 392.596 181.891C387.113 184.787 379.349 186.042 372.633 188.735C356.921 192.482 340.161 194.791 322.168 196.897C311.939 197.748 303.127 197.567 293.083 197.183C283.038 196.799 272.994 196.415 263.134 194.796C242.182 191.356 221.598 185.446 200.152 176.863C178.705 168.281 159.228 154.961 139.751 141.642L126.253 130.569C121.692 127.289 110.859 165.998 116.468 170.715ZM682.685 110.589C670.917 109.179 659.084 108.503 647.253 108.567C642.323 107.758 635.976 107.981 630.861 108.406C620.632 109.257 610.404 110.108 599.99 112.194C580.396 116.569 563.083 122.582 548.234 129.001C540.286 131.492 533.57 134.185 527.902 138.315C521.002 142.243 516.751 145.341 511.267 148.236C501.533 154.229 494.264 160.627 490.013 163.725C485.578 168.058 482.744 170.123 482.744 170.123C482.744 170.123 485.393 169.293 490.877 166.397C496.36 163.502 503.26 159.574 514.043 155.018C519.341 153.358 524.64 151.697 531.356 149.004C536.84 146.109 544.603 144.853 551.319 142.16C567.031 138.414 583.792 136.105 601.784 133.998C612.013 133.147 620.825 133.329 630.869 133.712C640.914 134.096 650.958 134.48 660.818 136.099C681.77 139.54 702.354 145.45 723.801 154.032C767.813 172.212 806.157 202.147 834.623 240.551L835.671 241.988L837.767 244.863L840.912 249.175L847.384 256.564L853.857 263.953L861.562 271.544C867.171 276.261 871.547 280.775 877.156 285.492C882.765 290.208 887.326 293.488 892.935 298.204C914.508 314.399 939.284 326.058 963.196 335.045C988.524 342.999 998.066 312.935 976.619 304.353C955.172 295.771 935.696 282.451 916.219 269.131L902.72 258.058C898.159 254.779 895.015 250.467 890.639 245.952L883.982 239.798L877.509 232.409L871.036 225.021L867.892 220.709L866.844 219.271L865.796 217.834C848.969 196.128 829.357 176.739 807.484 160.181C785.912 143.986 761.136 132.327 737.224 123.34C719.421 117.53 701.174 113.264 682.685 110.589ZM56.7128 224.165C78.2854 240.36 103.061 252.019 126.973 261.006C152.302 268.96 175.534 274.04 199.321 275.415C211.646 277.439 222.059 275.353 233.336 275.939C243.565 275.088 253.793 274.237 264.207 272.152C283.801 267.777 301.114 261.763 315.963 255.345C323.911 252.854 330.627 250.161 336.295 246.031C343.195 242.103 348.679 239.207 352.929 236.11C362.664 230.116 369.933 223.719 374.184 220.621C378.619 216.288 381.453 214.223 381.453 214.223C381.453 214.223 378.804 215.053 373.32 217.949C367.837 220.844 360.937 224.772 350.154 229.328C344.855 230.988 339.557 232.649 332.841 235.342C327.357 238.237 319.594 239.493 312.878 242.186C297.166 245.932 280.405 248.241 262.413 250.348C252.184 251.199 243.372 251.017 233.328 250.633C223.283 250.249 213.239 249.865 203.379 248.247C182.427 244.806 161.843 238.896 140.396 230.314C118.949 221.732 99.4728 208.412 79.9962 195.092C79.9962 195.092 51.1038 219.449 56.7128 224.165ZM622.93 164.04C611.162 162.629 599.328 161.954 587.497 162.018C582.567 161.208 576.22 161.431 571.106 161.857C560.877 162.708 550.648 163.559 540.235 165.645C520.641 170.019 503.327 176.033 488.479 182.452C480.53 184.942 473.814 187.635 468.147 191.766C461.246 195.694 456.996 198.791 451.512 201.687C441.778 207.68 434.509 214.078 430.258 217.175C425.823 221.508 422.989 223.573 422.989 223.573C422.989 223.573 425.638 222.743 431.121 219.848C436.605 216.952 443.505 213.024 454.287 208.469C459.586 206.808 464.885 205.148 471.601 202.455C477.084 199.559 484.848 198.304 491.564 195.611C507.276 191.864 524.036 189.555 542.029 187.448C552.258 186.597 561.07 186.779 571.114 187.163C581.159 187.547 591.203 187.931 601.063 189.55C622.015 192.99 642.598 198.9 664.045 207.482C685.492 216.065 705.153 228.15 724.445 242.704C743.738 257.259 760.011 275.114 774.868 294.001L775.916 295.439L778.012 298.313L781.156 302.625L787.629 310.014L794.101 317.403L801.807 324.994C807.416 329.711 811.792 334.225 817.401 338.942C823.01 343.659 827.571 346.938 833.18 351.655C854.753 367.849 879.528 379.508 903.44 388.495C928.769 396.45 952.002 401.53 975.788 402.905C988.113 404.928 989.706 377.355 979.846 375.736C958.894 372.296 938.311 366.386 916.864 357.803C895.417 349.221 875.94 335.901 856.464 322.581L842.965 311.508C838.404 308.229 835.26 303.917 830.883 299.403L824.226 293.249L817.754 285.86L811.281 278.471L808.137 274.159L807.089 272.722L806.041 271.284C789.213 249.579 769.602 230.189 747.729 213.631C726.156 197.437 701.381 185.777 677.469 176.79C659.666 170.979 641.419 166.713 622.93 164.04ZM578.097 247.776C560.546 244.388 542.207 242.895 522.451 242.435C497.064 243.327 470.075 246.487 444.813 254.992C419.551 263.496 394.968 275.908 372.481 291.195L371.064 292.227L369.647 293.26L365.396 296.357L357.079 301.318L348.762 306.279L340.629 310.004C335.146 312.9 330.895 315.997 325.596 317.658L309.515 323.874C287.087 330.313 264.659 336.753 241.736 338.05C218.814 339.347 197.492 338.377 176.54 334.937C166.68 333.318 157.005 330.464 147.329 327.61C137.654 324.756 129.211 322.105 119.72 318.016C103.203 310.243 87.9184 302.673 74.0509 294.069C68.4418 289.353 60.4347 300.69 67.2763 305.609C88.3609 325.515 113.04 341.169 139.942 351.702C150.85 354.758 160.157 360.082 172.482 362.106C195.53 368.42 219.132 371.03 245.568 371.575C270.955 370.683 297.944 367.523 323.206 359.018C329.922 356.325 335.221 354.665 341.937 351.972C348.653 349.279 354.136 346.383 360.852 343.69L370.401 338.932L378.719 333.971L387.036 329.011L391.287 325.913L394.121 323.848L395.538 322.815C433.84 295.374 479.076 279.163 526.283 275.96C549.205 274.663 570.526 275.633 591.479 279.073C601.339 280.692 611.014 283.546 620.69 286.4C630.365 289.254 638.808 291.905 648.299 295.994C664.816 303.767 680.1 311.337 693.968 319.94C699.577 324.657 706.603 328.341 710.979 332.856C716.589 337.572 721.15 340.852 725.711 344.131C734.648 351.925 740.073 357.876 744.449 362.39C748.826 366.905 751.106 368.544 751.106 368.544C751.106 368.544 749.01 365.67 746.051 360.123C742.907 355.811 737.851 347.389 730.33 338.563C725.954 334.049 722.81 329.737 717.385 323.785C713.193 318.036 707.584 313.319 700.743 308.4C688.476 297.53 673.745 286.254 656.365 275.809C647.058 270.486 637.567 266.397 628.076 262.308C623.331 260.264 617.353 258.017 612.423 257.207C601.177 253.354 589.713 250.204 578.097 247.776ZM923.797 455.1C914.121 452.246 905.678 449.594 896.187 445.505C879.67 437.733 864.386 430.162 850.518 421.559C844.909 416.842 837.883 413.158 833.507 408.644C827.898 403.927 823.337 400.648 818.776 397.368C809.838 389.575 804.414 383.623 800.037 379.109C795.66 374.595 793.38 372.955 793.38 372.955C793.38 372.955 795.476 375.83 798.436 381.376C801.58 385.688 806.635 394.11 814.156 402.936C817.3 407.248 821.676 411.762 827.101 417.714C831.293 423.463 836.902 428.18 843.744 433.099C864.828 453.004 889.508 468.659 916.41 479.191C927.318 482.248 933.472 457.953 923.797 455.1ZM620.823 316.787C603.272 313.399 584.951 311.783 565.177 311.446C539.789 312.339 512.8 315.499 487.538 324.004C462.276 332.508 437.694 344.92 415.207 360.206L413.79 361.239L412.373 362.271L408.122 365.369L399.805 370.33L391.488 375.29L383.355 379.016C377.871 381.911 373.621 385.009 368.322 386.669L352.241 392.886C329.813 399.325 307.385 405.765 284.462 407.062C261.539 408.359 240.218 407.389 219.266 403.949C209.406 402.33 199.73 399.476 190.055 396.622C180.379 393.768 171.937 391.117 162.446 387.028C145.929 379.255 130.644 371.684 116.777 363.081C111.168 358.365 104.142 354.68 99.765 350.166C94.1559 345.449 87.9347 353.285 93.3593 359.236C97.5514 364.986 103.16 369.702 110.002 374.621C131.087 394.527 155.766 410.181 182.668 420.714C193.576 423.77 202.883 429.094 215.207 431.117C238.256 437.432 261.858 440.042 288.293 440.587C313.681 439.694 340.67 436.534 365.932 428.03C372.648 425.337 377.947 423.676 384.662 420.983C391.378 418.29 396.862 415.395 403.577 412.702L413.127 407.944L421.444 402.983L429.762 398.023L434.012 394.925L436.846 392.86L438.263 391.827C457.916 378.606 478.617 366.822 501.23 359.148C523.842 351.473 546.086 346.269 569.008 344.972C591.931 343.674 613.252 344.645 634.204 348.085C644.064 349.704 653.74 352.558 663.415 355.412C673.091 358.265 681.534 360.917 691.025 365.006C707.542 372.779 722.826 380.349 736.694 388.952C742.303 393.669 749.329 397.353 753.705 401.867C759.314 406.584 763.875 409.863 768.436 413.143C777.374 420.936 782.798 426.888 787.175 431.402C791.552 435.916 793.832 437.556 793.832 437.556C793.832 437.556 791.736 434.682 788.776 429.135C785.632 424.823 780.577 416.401 773.056 407.575C768.68 403.061 765.535 398.749 760.111 392.797C755.919 387.048 750.31 382.331 743.468 377.412C731.202 366.542 716.471 355.266 699.09 344.821C689.784 339.497 680.293 335.408 670.802 331.32C666.057 329.275 660.079 327.029 655.149 326.219C650.403 324.175 644.425 321.928 638.263 320.916C632.562 319.347 626.702 318.006 620.823 316.787ZM938.913 514.517C922.396 506.744 907.112 499.174 893.244 490.571C887.635 485.854 880.609 482.17 876.232 477.656C870.623 472.939 866.062 469.66 861.501 466.38C852.564 458.587 847.139 452.635 842.763 448.121C838.386 443.606 836.106 441.967 836.106 441.967C836.106 441.967 838.202 444.841 841.161 450.388C844.305 454.7 849.361 463.122 856.882 471.948C860.026 476.26 864.402 480.774 869.827 486.726C874.019 492.475 879.628 497.192 886.469 502.111C898.551 514.216 913.467 524.257 930.847 534.702C940.154 540.026 948.404 518.606 938.913 514.517ZM663.548 385.799C645.997 382.411 627.677 380.795 607.903 380.458C582.515 381.351 555.526 384.511 530.264 393.015C505.002 401.52 480.419 413.932 457.933 429.218L456.516 430.251L455.099 431.283L450.848 434.381L442.531 439.342L434.213 444.302L426.08 448.028C420.597 450.923 416.346 454.021 411.047 455.681L394.966 461.898C372.538 468.337 350.11 474.776 327.188 476.074C304.265 477.371 282.944 476.4 261.991 472.96C252.131 471.341 242.456 468.488 232.781 465.634C223.105 462.78 214.662 460.128 205.171 456.04C188.654 448.267 173.37 440.696 159.502 432.093C153.893 427.376 146.867 423.692 142.491 419.178C136.882 414.461 132.321 411.182 127.76 407.903C118.822 400.109 113.397 394.157 109.021 389.643C104.644 385.129 102.364 383.489 102.364 383.489C102.364 383.489 104.46 386.364 107.419 391.911C110.564 396.222 115.619 404.644 123.14 413.47C126.284 417.782 130.66 422.296 136.085 428.248C140.277 433.997 145.886 438.714 152.728 443.633C164.994 454.504 179.725 465.779 197.105 476.224C206.412 481.548 215.903 485.637 225.394 489.726C236.302 492.782 245.608 498.106 257.933 500.129C280.982 506.444 304.583 509.054 331.019 509.599C356.407 508.706 383.396 505.546 408.657 497.042C415.373 494.349 420.672 492.688 427.388 489.995C434.104 487.302 439.587 484.407 446.303 481.714L455.853 476.956L464.17 471.995L472.487 467.034L476.738 463.937L479.572 461.871L480.989 460.839C519.291 433.398 564.527 417.186 611.734 413.983C634.657 412.686 655.978 413.656 676.93 417.097C686.79 418.716 696.466 421.569 706.141 424.423C715.816 427.277 724.259 429.929 733.75 434.017C750.267 441.79 765.552 449.361 779.419 457.964C785.028 462.681 792.054 466.365 796.431 470.879C802.04 475.596 806.601 478.875 811.162 482.154C820.1 489.948 825.524 495.9 829.901 500.414C834.277 504.928 836.558 506.568 836.558 506.568C836.558 506.568 834.462 503.693 831.502 498.146C828.358 493.835 823.302 485.413 815.782 476.587C811.405 472.072 808.261 467.761 802.837 461.809C798.644 456.06 793.035 451.343 786.194 446.424C773.928 435.553 759.197 424.278 741.816 413.833C732.51 408.509 723.019 404.42 713.528 400.331C708.782 398.287 702.804 396.04 697.874 395.231C693.129 393.186 687.151 390.94 680.988 389.928C675.288 388.359 669.427 387.017 663.548 385.799ZM904.227 535.392C895.29 527.598 889.865 521.647 885.488 517.132C881.112 512.618 878.831 510.978 878.831 510.978C878.831 510.978 880.927 513.853 883.887 519.4C887.031 523.712 892.087 532.133 899.607 540.96C902.751 545.272 908.788 538.671 904.227 535.392ZM94.9264 441.734C99.303 446.248 101.583 447.888 101.583 447.888C101.583 447.888 99.4875 445.013 96.5278 439.466C93.3838 435.154 90.5499 437.22 94.9264 441.734ZM705.041 454.608C687.491 451.221 669.17 449.604 649.396 449.268C624.008 450.16 597.019 453.32 571.757 461.825C546.495 470.329 521.913 482.741 499.426 498.027L498.009 499.06L496.592 500.093L492.341 503.19L484.024 508.151L475.706 513.111L467.574 516.837C462.09 519.732 457.839 522.83 452.541 524.491L436.459 530.707C414.031 537.146 391.603 543.586 368.681 544.883C345.758 546.18 324.437 545.21 303.485 541.77C293.625 540.151 283.949 537.297 274.274 534.443C264.598 531.589 256.155 528.938 246.664 524.849C230.147 517.076 214.863 509.505 200.995 500.902C195.386 496.186 188.36 492.502 183.984 487.987C178.375 483.271 173.814 479.991 169.253 476.712C160.315 468.918 154.891 462.967 150.514 458.452C146.138 453.938 143.857 452.298 143.857 452.298C143.857 452.298 145.953 455.173 148.913 460.72C152.057 465.032 157.112 473.453 164.633 482.28C167.777 486.592 172.154 491.106 177.578 497.057C181.77 502.807 187.379 507.523 194.221 512.442C206.487 523.313 221.218 534.588 238.599 545.034C247.905 550.357 257.396 554.446 266.887 558.535C277.795 561.591 287.101 566.915 299.426 568.939C322.475 575.253 346.076 577.863 372.512 578.408C397.9 577.516 424.889 574.356 450.151 565.851C456.867 563.158 462.165 561.498 468.881 558.805C475.597 556.112 481.08 553.216 487.796 550.523L497.346 545.765L505.663 540.804L513.981 535.844L518.231 532.746L521.065 530.681L522.482 529.648C560.784 502.207 606.02 485.996 653.227 482.793C676.15 481.496 697.471 482.466 718.423 485.906C728.283 487.525 737.959 490.379 747.634 493.233C757.31 496.087 765.753 498.738 775.244 502.827C791.761 510.6 807.045 518.17 820.912 526.773C826.522 531.49 833.548 535.174 837.924 539.688C843.533 544.405 848.094 547.684 852.655 550.964C861.593 558.757 867.017 564.709 871.394 569.223C875.77 573.738 878.051 575.377 878.051 575.377C878.051 575.377 875.955 572.503 872.995 566.956C869.851 562.644 864.795 554.222 857.275 545.396C852.898 540.882 849.754 536.57 844.33 530.618C840.138 524.869 834.529 520.152 827.687 515.233C815.421 504.363 800.69 493.087 783.309 482.642C774.003 477.318 764.512 473.23 755.021 469.141C750.275 467.096 744.297 464.85 739.367 464.04C728.121 460.187 716.657 457.037 705.041 454.608ZM87.1707 468.296C92.7798 473.012 99.8058 476.696 104.182 481.211C109.791 485.927 114.352 489.207 118.913 492.486C127.851 500.28 133.276 506.231 137.652 510.746C142.029 515.26 144.309 516.9 144.309 516.9C144.309 516.9 142.213 514.025 139.254 508.478C136.109 504.166 131.054 495.745 123.533 486.918C119.157 482.404 116.013 478.092 110.588 472.141C106.396 466.391 100.787 461.675 93.9453 456.756C81.6792 445.885 66.9481 434.61 49.5676 424.164C40.2611 418.841 73.3032 459.693 87.1707 468.296ZM747.767 523.62C730.216 520.232 711.878 518.74 692.122 518.279C666.734 519.172 639.745 522.332 614.483 530.836C589.221 539.341 564.638 551.753 542.151 567.039L540.734 568.072L539.318 569.104L535.067 572.202L526.749 577.163L518.432 582.123L510.299 585.849C504.816 588.744 500.565 591.842 495.266 593.502L479.185 599.719C456.757 606.158 434.329 612.597 411.406 613.895C388.484 615.192 367.163 614.222 346.21 610.781C336.35 609.162 326.675 606.309 317 603.455C307.324 600.601 298.881 597.949 289.39 593.861C272.873 586.088 257.589 578.517 243.721 569.914C238.112 565.197 231.086 561.513 226.71 556.999C221.101 552.282 216.54 549.003 211.978 545.724C203.041 537.93 197.616 531.978 193.24 527.464C188.863 522.95 186.583 521.31 186.583 521.31C186.583 521.31 188.679 524.185 191.638 529.732C194.782 534.044 199.838 542.465 207.359 551.291C210.503 555.603 214.879 560.118 220.304 566.069C224.496 571.818 230.105 576.535 236.947 581.454C249.213 592.325 263.944 603.6 281.324 614.045C290.631 619.369 300.122 623.458 309.613 627.547C320.521 630.603 329.827 635.927 342.152 637.95C365.2 644.265 388.802 646.875 415.238 647.42C440.625 646.527 467.614 643.367 492.876 634.863C499.592 632.17 504.891 630.509 511.607 627.816C518.323 625.123 523.806 622.228 530.522 619.535L540.072 614.777L548.389 609.816L556.706 604.856L560.957 601.758L563.791 599.693L565.208 598.66C584.861 585.439 605.562 573.655 628.174 565.981C650.787 558.306 673.03 553.102 695.953 551.805C718.876 550.507 740.197 551.478 761.149 554.918C771.009 556.537 780.684 559.391 790.36 562.244C800.035 565.098 808.478 567.75 817.969 571.839C834.486 579.611 849.771 587.182 863.638 595.785C869.247 600.502 876.273 604.186 880.65 608.7C886.259 613.417 892.48 605.582 887.055 599.63C882.863 593.881 877.254 589.164 870.413 584.245C858.147 573.374 843.416 562.099 826.035 551.654C816.729 546.33 807.238 542.241 797.747 538.153C793.001 536.108 787.023 533.861 782.093 533.052C777.348 531.008 771.37 528.761 765.207 527.749C759.507 526.18 753.646 524.839 747.767 523.62ZM55.2011 504.799C64.8766 507.653 73.3195 510.305 82.8105 514.393C99.3275 522.166 114.612 529.737 128.479 538.34C134.089 543.057 141.115 546.741 145.491 551.255C151.1 555.972 155.661 559.251 160.222 562.53C169.16 570.324 174.584 576.276 178.961 580.79C183.337 585.304 185.618 586.944 185.618 586.944C185.618 586.944 183.522 584.069 180.562 578.523C177.418 574.211 172.363 565.789 164.842 556.963C160.465 552.448 157.321 548.137 151.897 542.185C147.705 536.436 142.096 531.719 135.254 526.8C122.988 515.929 108.257 504.654 90.8764 494.209C81.5699 488.885 72.0789 484.796 62.5879 480.707C57.8424 478.663 45.5257 501.945 55.2011 504.799ZM789.076 593.665C771.525 590.277 753.186 588.784 733.43 588.324C708.043 589.216 681.054 592.376 655.792 600.881C630.53 609.385 605.947 621.797 583.46 637.084L582.043 638.116L580.626 639.149L576.375 642.246L568.058 647.207L559.741 652.168L551.608 655.893C546.125 658.789 541.874 661.886 536.575 663.547L520.494 669.763C498.066 676.202 475.638 682.642 452.715 683.939C429.793 685.236 408.471 684.266 387.519 680.826C377.659 679.207 367.984 676.353 358.308 673.499C348.633 670.645 340.19 667.994 330.699 663.905C314.182 656.132 298.897 648.562 285.03 639.958C279.421 635.242 272.395 631.558 268.018 627.043C262.409 622.327 257.848 619.047 253.287 615.768C244.35 607.974 238.925 602.023 234.549 597.508C230.172 592.994 227.891 591.354 227.891 591.354C227.891 591.354 229.988 594.229 232.947 599.776C236.091 604.088 241.147 612.509 248.667 621.336C251.812 625.648 256.188 630.162 261.613 636.114C265.805 641.863 271.414 646.579 278.255 651.498C290.521 662.369 305.253 673.645 322.633 684.09C331.94 689.413 341.431 693.502 350.922 697.591C361.829 700.647 371.136 705.971 383.461 707.995C406.509 714.309 430.111 716.919 456.547 717.464C481.934 716.572 508.923 713.412 534.185 704.907C540.901 702.214 546.2 700.554 552.916 697.861C559.632 695.168 565.115 692.272 571.831 689.579L581.38 684.821L589.698 679.86L598.015 674.9L602.266 671.802L605.1 669.737L606.517 668.704C626.17 655.483 646.87 643.699 669.483 636.025C692.095 628.351 714.339 623.146 737.262 621.849C760.184 620.552 781.506 621.522 802.458 624.962C812.318 626.581 821.993 629.435 831.669 632.289C841.344 635.143 849.787 637.794 859.278 641.883C875.795 649.656 891.079 657.226 904.947 665.83C910.556 670.546 918.563 659.208 911.722 654.289C899.455 643.419 884.724 632.143 867.344 621.698C858.037 616.375 848.546 612.286 839.055 608.197C834.31 606.152 828.332 603.906 823.402 603.096C818.656 601.052 812.679 598.805 806.516 597.793C800.816 596.225 794.955 594.883 789.076 593.665ZM30.8787 560.272C24.9258 559.547 -0.848518 584.163 9.01139 585.782C29.9637 589.222 50.5471 595.132 71.994 603.714C93.4409 612.297 113.102 624.382 132.394 638.936C151.686 653.491 167.96 671.346 182.817 690.233L183.865 691.671L185.961 694.545L189.105 698.857L195.577 706.246L202.05 713.635L209.755 721.226C215.364 725.943 219.741 730.457 225.35 735.174C230.959 739.891 235.52 743.17 241.129 747.887C262.701 764.081 287.477 775.74 311.389 784.728C336.718 792.682 359.95 797.762 383.737 799.137C396.062 801.161 406.475 799.075 417.752 799.661C427.981 798.81 438.209 797.959 448.623 795.873C468.217 791.499 485.53 785.485 500.379 779.066C508.327 776.576 515.043 773.883 520.711 769.752C527.611 765.824 533.095 762.929 537.346 759.831C547.08 753.838 554.349 747.44 558.6 744.342C563.035 740.01 565.869 737.945 565.869 737.945C565.869 737.945 563.22 738.775 557.736 741.67C552.253 744.566 545.353 748.494 534.57 753.049C529.272 754.71 523.973 756.37 517.257 759.063C511.773 761.959 504.01 763.214 497.294 765.907C481.582 769.654 464.821 771.963 446.829 774.069C436.6 774.92 427.788 774.739 417.744 774.355C407.699 773.971 397.655 773.587 387.795 771.968C366.843 768.528 346.259 762.618 324.812 754.035C303.365 745.453 283.889 732.133 264.412 718.814L250.914 707.741C246.353 704.461 243.209 700.149 238.832 695.635L232.175 689.481L225.702 682.092L219.23 674.703L216.086 670.391L215.038 668.954L213.99 667.517C197.487 645.524 177.831 626.09 155.677 609.863C134.105 593.669 109.329 582.009 85.4175 573.022C67.6146 567.212 49.3675 562.946 30.8787 560.272ZM789.537 686.102C783.375 685.091 777.028 685.314 771.913 685.739C766.983 684.93 760.637 685.153 755.522 685.578C745.293 686.429 735.064 687.28 724.651 689.366C705.057 693.741 687.743 699.754 672.895 706.173C664.946 708.664 658.231 711.357 652.563 715.487C645.662 719.415 641.412 722.513 635.928 725.408C626.194 731.401 618.925 737.799 614.674 740.897C610.239 745.23 607.405 747.295 607.405 747.295C607.405 747.295 610.054 746.465 615.538 743.569C621.021 740.674 627.921 736.746 638.703 732.19C644.002 730.53 649.301 728.869 656.017 726.176C661.5 723.281 669.264 722.025 675.98 719.332C691.692 715.586 708.452 713.277 726.445 711.17C736.674 710.319 745.486 710.5 755.53 710.884C765.575 711.268 775.619 711.652 785.479 713.271C806.431 716.711 827.014 722.622 848.461 731.204C869.908 739.786 889.569 751.871 908.861 766.426C928.154 780.981 953.718 753.547 932.145 737.353C910.572 721.158 885.797 709.499 861.885 700.512C845.948 695.319 829.65 691.374 813.139 688.712C801.393 687.037 795.422 686.436 789.537 686.102ZM11.1907 655.728C55.2035 673.908 93.5466 703.842 122.013 742.247L123.061 743.684L125.157 746.558L128.302 750.87L134.774 758.259L141.247 765.648L148.952 773.239C154.561 777.956 158.937 782.471 164.546 787.187C170.155 791.904 174.717 795.183 180.326 799.9C201.898 816.094 226.674 827.754 250.586 836.741C275.914 844.695 299.147 849.775 322.933 851.15C335.258 853.174 345.672 851.088 356.948 851.674C367.177 850.823 377.406 849.972 387.819 847.886C407.414 843.512 424.727 837.498 439.576 831.08C447.524 828.589 454.24 825.896 459.908 821.765C466.808 817.837 472.291 814.942 476.542 811.844C486.276 805.851 493.546 799.453 497.796 796.356C502.232 792.023 505.066 789.958 505.066 789.958C505.066 789.958 502.416 790.788 496.933 793.683C491.45 796.579 484.549 800.507 473.767 805.062C468.468 806.723 463.169 808.383 456.454 811.076C450.97 813.972 443.206 815.227 436.49 817.921C420.778 821.667 404.018 823.976 386.025 826.083C375.797 826.934 366.985 826.752 356.94 826.368C346.896 825.984 336.852 825.6 326.992 823.981C306.039 820.541 285.456 814.631 264.009 806.049C242.562 797.466 223.086 784.146 203.609 770.827L190.11 759.754C185.549 756.474 182.405 752.162 178.029 747.648L171.372 741.494L164.899 734.105L158.426 726.716L155.282 722.404L154.234 720.967L153.186 719.53C136.359 697.824 116.747 678.434 94.8742 661.876C73.3015 645.682 48.5261 634.023 24.6142 625.036C5.66995 619.141 -10.2562 647.145 11.1907 655.728ZM746.543 739.774C734.775 738.364 722.941 737.689 711.11 737.752C706.18 736.943 699.833 737.166 694.719 737.592C684.49 738.443 674.261 739.294 663.848 741.38C644.254 745.754 626.94 751.768 612.091 758.186C604.143 760.677 597.427 763.37 591.759 767.5C584.859 771.428 580.608 774.526 575.125 777.421C565.391 783.414 558.122 789.812 553.871 792.91C549.435 797.243 546.601 799.308 546.601 799.308C546.601 799.308 549.251 798.478 554.734 795.582C560.218 792.687 567.118 788.759 577.9 784.203C583.199 782.543 588.498 780.882 595.214 778.189C600.697 775.294 608.461 774.038 615.177 771.345C630.889 767.599 647.649 765.29 665.642 763.183C675.871 762.332 684.683 762.514 694.727 762.898C704.771 763.282 714.816 763.666 724.676 765.284C745.628 768.725 766.211 774.635 787.658 783.217C809.105 791.799 828.766 803.884 848.058 818.439C867.35 832.994 892.914 805.56 871.342 789.366C849.769 773.171 824.994 761.512 801.082 752.525C783.279 746.715 765.032 742.449 746.543 739.774ZM10.7875 742.963C30.0796 757.517 46.3533 775.372 61.2101 794.26L62.2581 795.697L64.3542 798.572L67.4982 802.884L73.9708 810.273L80.4434 817.661L88.1485 825.253C93.7576 829.969 98.1341 834.484 103.743 839.2C109.352 843.917 113.913 847.196 119.522 851.913C141.095 868.107 363.924 889.511 378.772 883.093C386.721 880.602 393.437 877.909 399.104 873.779C406.005 869.851 411.488 866.955 415.739 863.857C425.473 857.864 432.742 851.466 436.993 848.369C441.429 844.036 444.262 841.971 444.262 841.971C444.262 841.971 441.613 842.801 436.13 845.696C430.646 848.592 423.746 852.52 412.964 857.076C407.665 858.736 402.366 860.397 395.65 863.09C390.167 865.985 382.403 867.241 375.687 869.934C359.975 873.68 343.215 875.989 325.222 878.096C314.993 878.947 306.181 878.765 296.137 878.381C286.093 877.997 276.048 877.613 266.188 875.994C245.236 872.554 224.653 866.644 203.206 858.062C181.759 849.479 162.282 836.16 142.806 822.84L129.307 811.767C124.746 808.488 121.602 804.176 117.225 799.661L110.568 793.507L104.096 786.118L97.6232 778.729L94.4791 774.418L93.4311 772.98L92.3831 771.543C75.5552 749.837 55.9441 730.447 34.0709 713.89C12.4982 697.695 -8.50465 728.408 10.7875 742.963ZM685.74 791.788C679.787 791.063 673.815 790.462 667.931 790.129C661.768 789.117 655.421 789.34 650.307 789.766C645.377 788.956 639.03 789.179 633.915 789.605C623.687 790.456 613.458 791.307 603.045 793.393C583.45 797.767 566.137 803.781 551.288 810.199C543.34 812.69 536.624 815.383 530.956 819.513C524.056 823.441 519.805 826.539 514.322 829.434C504.587 835.428 497.318 841.825 493.067 844.923C488.632 849.256 485.798 851.321 485.798 851.321C485.798 851.321 488.448 850.491 493.931 847.596C499.414 844.7 506.315 840.772 517.097 836.216C522.396 834.556 527.695 832.895 534.41 830.202C539.894 827.307 547.658 826.051 554.373 823.358C570.086 819.612 586.846 817.303 604.839 815.196C615.067 814.345 623.879 814.527 633.924 814.911C643.968 815.295 654.012 815.679 663.872 817.298C684.825 820.738 705.408 826.648 726.855 835.23C748.302 843.813 767.963 855.897 787.255 870.452C806.547 885.007 822.821 902.862 837.678 921.749L838.726 923.186L868.85 899.032C852.023 877.326 832.412 857.937 810.538 841.379C788.966 825.185 764.19 813.525 740.278 804.538C722.476 798.727 704.228 794.462 685.74 791.788ZM626.169 844.003C620.216 843.279 614.245 842.678 608.36 842.344C602.197 841.332 595.85 841.556 590.736 841.981C585.806 841.172 579.459 841.395 574.345 841.82C564.116 842.671 553.887 843.522 543.474 845.608C523.88 849.982 506.566 855.996 491.717 862.415C483.769 864.906 477.053 867.598 471.385 871.729C464.485 875.657 460.234 878.755 454.751 881.65C445.017 887.643 446.744 892.988 457.526 888.432C462.825 886.771 468.124 885.111 474.84 882.418C480.323 879.523 488.087 878.267 494.803 875.574C510.515 871.827 527.275 869.518 545.268 867.412C555.497 866.561 564.308 866.742 574.353 867.126C584.397 867.51 594.442 867.894 604.301 869.513C625.254 872.953 645.837 878.863 667.284 887.446C688.731 896.028 708.392 908.113 727.684 922.668C746.976 937.222 810.328 952.685 810.328 952.685L809.28 951.248C792.452 929.542 772.841 910.152 750.968 893.594C729.395 877.4 704.619 865.741 680.708 856.754C662.905 850.944 644.658 846.678 626.169 844.003Z" fill="#524A79" fill-opacity="0.6"/>
</svg>
