<svg width="40" height="40" viewBox="0 0 40 40" fill="none" xmlns="http://www.w3.org/2000/svg">
<path d="M38.8319 31.4852L35.8688 14.713C35.2554 11.2415 32.2516 8.72188 28.7264 8.72188H24.5344C25.1682 7.82094 25.5419 6.72445 25.5419 5.54164C25.542 2.48602 23.0558 0 20.0002 0C16.9446 0 14.4585 2.48602 14.4585 5.54172C14.4585 6.72453 14.8321 7.82102 15.466 8.72195H11.2739C7.74879 8.72195 4.74496 11.2416 4.1316 14.713L1.16847 31.4852C0.794488 33.6023 1.37246 35.7611 2.75402 37.4082C4.13566 39.0554 6.16097 40 8.31089 40H31.6896C33.8396 40 35.8649 39.0553 37.2464 37.4083C38.6281 35.7612 39.2058 33.6023 38.8319 31.4852ZM20.0002 2.36148C21.7538 2.36148 23.1804 3.78813 23.1804 5.54172C23.1804 7.29531 21.7537 8.72195 20.0002 8.72195C18.2467 8.72195 16.82 7.29531 16.82 5.54172C16.82 3.78813 18.2466 2.36148 20.0002 2.36148ZM35.4371 35.8906C34.5053 37.0015 33.1395 37.6385 31.6896 37.6385H8.31089C6.86105 37.6385 5.49511 37.0015 4.56339 35.8906C3.63168 34.7798 3.24183 33.3238 3.4941 31.8961L6.45722 15.1239C6.87089 12.7827 8.89668 11.0834 11.274 11.0834H28.7266C31.104 11.0834 33.1298 12.7826 33.5434 15.1237L36.5065 31.896C36.7587 33.3238 36.3688 34.7798 35.4371 35.8906Z" fill="black"/>
<path d="M38.8319 31.4852L35.8688 14.713C35.2554 11.2415 32.2516 8.72188 28.7264 8.72188H24.5344C25.1682 7.82094 25.5419 6.72445 25.5419 5.54164C25.542 2.48602 23.0558 0 20.0002 0C16.9446 0 14.4585 2.48602 14.4585 5.54172C14.4585 6.72453 14.8321 7.82102 15.466 8.72195H11.2739C7.74879 8.72195 4.74496 11.2416 4.1316 14.713L1.16847 31.4852C0.794488 33.6023 1.37246 35.7611 2.75402 37.4082C4.13566 39.0554 6.16097 40 8.31089 40H31.6896C33.8396 40 35.8649 39.0553 37.2464 37.4083C38.6281 35.7612 39.2058 33.6023 38.8319 31.4852ZM20.0002 2.36148C21.7538 2.36148 23.1804 3.78813 23.1804 5.54172C23.1804 7.29531 21.7537 8.72195 20.0002 8.72195C18.2467 8.72195 16.82 7.29531 16.82 5.54172C16.82 3.78813 18.2466 2.36148 20.0002 2.36148ZM35.4371 35.8906C34.5053 37.0015 33.1395 37.6385 31.6896 37.6385H8.31089C6.86105 37.6385 5.49511 37.0015 4.56339 35.8906C3.63168 34.7798 3.24183 33.3238 3.4941 31.8961L6.45722 15.1239C6.87089 12.7827 8.89668 11.0834 11.274 11.0834H28.7266C31.104 11.0834 33.1298 12.7826 33.5434 15.1237L36.5065 31.896C36.7587 33.3238 36.3688 34.7798 35.4371 35.8906Z" fill="white" fill-opacity="0.4"/>
<path d="M16.1178 24.3606L19.0766 21.3031C19.5302 20.8346 19.5178 20.0871 19.0492 19.6336C18.5805 19.1799 17.833 19.1924 17.3795 19.661L14.0705 23.0803V20.4821C14.0705 19.8299 13.5419 19.3013 12.8898 19.3013C12.2377 19.3013 11.709 19.8299 11.709 20.4821V28.2392C11.709 28.8913 12.2377 29.4199 12.8898 29.4199C13.5419 29.4199 14.0705 28.8913 14.0705 28.2392V25.641L17.3795 29.0603C17.6111 29.2996 17.9195 29.4199 18.2282 29.4199C18.5238 29.4199 18.8199 29.3096 19.0492 29.0877C19.5178 28.6342 19.53 27.8867 19.0766 27.4181L16.1178 24.3606Z" fill="#524A79"/>
<path d="M16.1178 24.3606L19.0766 21.3031C19.5302 20.8346 19.5178 20.0871 19.0492 19.6336C18.5805 19.1799 17.833 19.1924 17.3795 19.661L14.0705 23.0803V20.4821C14.0705 19.8299 13.5419 19.3013 12.8898 19.3013C12.2377 19.3013 11.709 19.8299 11.709 20.4821V28.2392C11.709 28.8913 12.2377 29.4199 12.8898 29.4199C13.5419 29.4199 14.0705 28.8913 14.0705 28.2392V25.641L17.3795 29.0603C17.6111 29.2996 17.9195 29.4199 18.2282 29.4199C18.5238 29.4199 18.8199 29.3096 19.0492 29.0877C19.5178 28.6342 19.53 27.8867 19.0766 27.4181L16.1178 24.3606Z" fill="#524A79" fill-opacity="0.4"/>
<path d="M27.1108 23.5128H25.3383C24.6862 23.5128 24.1575 24.0415 24.1575 24.6936C24.1575 25.3457 24.6862 25.8744 25.3383 25.8744H25.9106C25.7981 26.5451 25.2135 27.0578 24.5112 27.0578C23.7288 27.0578 23.0924 26.4213 23.0924 25.639V23.081C23.0924 22.2987 23.7288 21.6622 24.5112 21.6622C24.9513 21.6622 25.3594 21.8616 25.6309 22.2094C26.0321 22.7233 26.7741 22.8148 27.2881 22.4136C27.8021 22.0123 27.8936 21.2703 27.4924 20.7563C26.7704 19.8313 25.6838 19.3008 24.5113 19.3008C22.4268 19.3008 20.731 20.9966 20.731 23.0811V25.6391C20.731 27.7235 22.4268 29.4194 24.5113 29.4194C26.5957 29.4194 28.2916 27.7235 28.2916 25.6391V24.6938C28.2916 24.0415 27.7629 23.5128 27.1108 23.5128Z" fill="#524A79"/>
<path d="M27.1108 23.5128H25.3383C24.6862 23.5128 24.1575 24.0415 24.1575 24.6936C24.1575 25.3457 24.6862 25.8744 25.3383 25.8744H25.9106C25.7981 26.5451 25.2135 27.0578 24.5112 27.0578C23.7288 27.0578 23.0924 26.4213 23.0924 25.639V23.081C23.0924 22.2987 23.7288 21.6622 24.5112 21.6622C24.9513 21.6622 25.3594 21.8616 25.6309 22.2094C26.0321 22.7233 26.7741 22.8148 27.2881 22.4136C27.8021 22.0123 27.8936 21.2703 27.4924 20.7563C26.7704 19.8313 25.6838 19.3008 24.5113 19.3008C22.4268 19.3008 20.731 20.9966 20.731 23.0811V25.6391C20.731 27.7235 22.4268 29.4194 24.5113 29.4194C26.5957 29.4194 28.2916 27.7235 28.2916 25.6391V24.6938C28.2916 24.0415 27.7629 23.5128 27.1108 23.5128Z" fill="#524A79" fill-opacity="0.4"/>
</svg>
