<svg width="40" height="40" viewBox="0 0 40 40" fill="none" xmlns="http://www.w3.org/2000/svg">
<g clip-path="url(#clip0)">
<path d="M21.2499 13.75C21.2499 13.4185 21.1182 13.1005 20.8838 12.8661C20.6494 12.6317 20.3314 12.5 19.9999 12.5C19.6684 12.5 19.3504 12.6317 19.116 12.8661C18.8816 13.1005 18.7499 13.4185 18.7499 13.75V22.155L15.1774 28.105C15.0067 28.3894 14.9559 28.7301 15.0363 29.0519C15.1167 29.3738 15.3217 29.6505 15.6061 29.8213C15.8906 29.992 16.2312 30.0427 16.5531 29.9623C16.8749 29.8819 17.1517 29.6769 17.3224 29.3925L21.0724 23.1425C21.1886 22.9483 21.25 22.7263 21.2499 22.5V13.75Z" fill="black"/>
<path d="M21.2499 13.75C21.2499 13.4185 21.1182 13.1005 20.8838 12.8661C20.6494 12.6317 20.3314 12.5 19.9999 12.5C19.6684 12.5 19.3504 12.6317 19.116 12.8661C18.8816 13.1005 18.7499 13.4185 18.7499 13.75V22.155L15.1774 28.105C15.0067 28.3894 14.9559 28.7301 15.0363 29.0519C15.1167 29.3738 15.3217 29.6505 15.6061 29.8213C15.8906 29.992 16.2312 30.0427 16.5531 29.9623C16.8749 29.8819 17.1517 29.6769 17.3224 29.3925L21.0724 23.1425C21.1886 22.9483 21.25 22.7263 21.2499 22.5V13.75Z" fill="white" fill-opacity="0.4"/>
<path d="M16.25 0C15.9185 0 15.6005 0.131696 15.3661 0.366117C15.1317 0.600537 15 0.918479 15 1.25C15 1.58152 15.1317 1.89946 15.3661 2.13388C15.6005 2.3683 15.9185 2.5 16.25 2.5H17.5V5.175C14.0957 5.66683 10.9118 7.15085 8.34594 9.44168C5.78013 11.7325 3.9462 14.7286 3.07323 18.0556C2.20026 21.3826 2.32697 24.8932 3.43751 28.1486C4.54806 31.4041 6.59322 34.2601 9.3175 36.36L7.8125 37.865C7.57778 38.0994 7.44579 38.4174 7.44555 38.7491C7.44532 39.0808 7.57687 39.399 7.81125 39.6338C8.04564 39.8685 8.36366 40.0005 8.69537 40.0007C9.02707 40.0009 9.34528 39.8694 9.58 39.635L11.445 37.77C14.0575 39.2364 17.004 40.0045 20 40C22.996 40.0045 25.9425 39.2364 28.555 37.77L30.42 39.635C30.6547 39.8694 30.9729 40.0009 31.3046 40.0007C31.6363 40.0005 31.9544 39.8685 32.1888 39.6338C32.4231 39.399 32.5547 39.0808 32.5544 38.7491C32.5542 38.4174 32.4222 38.0994 32.1875 37.865L30.685 36.36C33.4093 34.2599 35.4545 31.4037 36.5649 28.1481C37.6753 24.8924 37.8018 21.3817 36.9285 18.0546C36.0553 14.7275 34.221 11.7315 31.6549 9.44084C29.0887 7.15017 25.9045 5.66644 22.5 5.175V2.5H23.75C24.0815 2.5 24.3995 2.3683 24.6339 2.13388C24.8683 1.89946 25 1.58152 25 1.25C25 0.918479 24.8683 0.600537 24.6339 0.366117C24.3995 0.131696 24.0815 0 23.75 0L16.25 0ZM18.845 7.545C19.6139 7.48653 20.3861 7.48653 21.155 7.545C25.0217 7.84362 28.6224 9.62823 31.2017 12.5244C33.781 15.4205 35.1383 19.2031 34.9889 23.0784C34.8394 26.9537 33.1949 30.6205 30.4003 33.3095C27.6056 35.9984 23.8782 37.5005 20 37.5005C16.1218 37.5005 12.3944 35.9984 9.59973 33.3095C6.80511 30.6205 5.16056 26.9537 5.01114 23.0784C4.86172 19.2031 6.21904 15.4205 8.79832 12.5244C11.3776 9.62823 14.9783 7.84362 18.845 7.545ZM6.33218e-09 8.75C6.33218e-09 10.6325 0.8325 12.3225 2.15 13.4675C4.07937 9.66737 7.16737 6.57937 10.9675 4.65C10.1322 3.68883 9.02322 3.00574 7.78902 2.69217C6.55481 2.3786 5.25427 2.44951 4.06148 2.89542C2.86868 3.34132 1.84055 4.14094 1.11471 5.18724C0.388865 6.23353 -5.73008e-05 7.47658 6.33218e-09 8.75H6.33218e-09ZM33.75 2.5C31.8675 2.5 30.1775 3.3325 29.0325 4.65C32.8326 6.57937 35.9206 9.66737 37.85 13.4675C38.8112 12.6322 39.4943 11.5232 39.8078 10.289C40.1214 9.05481 40.0505 7.75427 39.6046 6.56148C39.1587 5.36868 38.3591 4.34055 37.3128 3.61471C36.2665 2.88887 35.0234 2.49994 33.75 2.5Z" fill="black"/>
<path d="M16.25 0C15.9185 0 15.6005 0.131696 15.3661 0.366117C15.1317 0.600537 15 0.918479 15 1.25C15 1.58152 15.1317 1.89946 15.3661 2.13388C15.6005 2.3683 15.9185 2.5 16.25 2.5H17.5V5.175C14.0957 5.66683 10.9118 7.15085 8.34594 9.44168C5.78013 11.7325 3.9462 14.7286 3.07323 18.0556C2.20026 21.3826 2.32697 24.8932 3.43751 28.1486C4.54806 31.4041 6.59322 34.2601 9.3175 36.36L7.8125 37.865C7.57778 38.0994 7.44579 38.4174 7.44555 38.7491C7.44532 39.0808 7.57687 39.399 7.81125 39.6338C8.04564 39.8685 8.36366 40.0005 8.69537 40.0007C9.02707 40.0009 9.34528 39.8694 9.58 39.635L11.445 37.77C14.0575 39.2364 17.004 40.0045 20 40C22.996 40.0045 25.9425 39.2364 28.555 37.77L30.42 39.635C30.6547 39.8694 30.9729 40.0009 31.3046 40.0007C31.6363 40.0005 31.9544 39.8685 32.1888 39.6338C32.4231 39.399 32.5547 39.0808 32.5544 38.7491C32.5542 38.4174 32.4222 38.0994 32.1875 37.865L30.685 36.36C33.4093 34.2599 35.4545 31.4037 36.5649 28.1481C37.6753 24.8924 37.8018 21.3817 36.9285 18.0546C36.0553 14.7275 34.221 11.7315 31.6549 9.44084C29.0887 7.15017 25.9045 5.66644 22.5 5.175V2.5H23.75C24.0815 2.5 24.3995 2.3683 24.6339 2.13388C24.8683 1.89946 25 1.58152 25 1.25C25 0.918479 24.8683 0.600537 24.6339 0.366117C24.3995 0.131696 24.0815 0 23.75 0L16.25 0ZM18.845 7.545C19.6139 7.48653 20.3861 7.48653 21.155 7.545C25.0217 7.84362 28.6224 9.62823 31.2017 12.5244C33.781 15.4205 35.1383 19.2031 34.9889 23.0784C34.8394 26.9537 33.1949 30.6205 30.4003 33.3095C27.6056 35.9984 23.8782 37.5005 20 37.5005C16.1218 37.5005 12.3944 35.9984 9.59973 33.3095C6.80511 30.6205 5.16056 26.9537 5.01114 23.0784C4.86172 19.2031 6.21904 15.4205 8.79832 12.5244C11.3776 9.62823 14.9783 7.84362 18.845 7.545ZM6.33218e-09 8.75C6.33218e-09 10.6325 0.8325 12.3225 2.15 13.4675C4.07937 9.66737 7.16737 6.57937 10.9675 4.65C10.1322 3.68883 9.02322 3.00574 7.78902 2.69217C6.55481 2.3786 5.25427 2.44951 4.06148 2.89542C2.86868 3.34132 1.84055 4.14094 1.11471 5.18724C0.388865 6.23353 -5.73008e-05 7.47658 6.33218e-09 8.75H6.33218e-09ZM33.75 2.5C31.8675 2.5 30.1775 3.3325 29.0325 4.65C32.8326 6.57937 35.9206 9.66737 37.85 13.4675C38.8112 12.6322 39.4943 11.5232 39.8078 10.289C40.1214 9.05481 40.0505 7.75427 39.6046 6.56148C39.1587 5.36868 38.3591 4.34055 37.3128 3.61471C36.2665 2.88887 35.0234 2.49994 33.75 2.5Z" fill="white" fill-opacity="0.4"/>
</g>
<defs>
<clipPath id="clip0">
<rect width="40" height="40" fill="white"/>
</clipPath>
</defs>
</svg>
