<svg width="40" height="40" viewBox="0 0 40 40" fill="none" xmlns="http://www.w3.org/2000/svg">
<path d="M35.7895 7.71934C36.5355 7.71934 37.2247 7.95726 37.7938 8.35582L36.4997 2.53263C36.1979 0.966275 35.0772 0 33.5747 0H7.03925C5.6954 0 4.52908 1.04069 4.20207 2.53123L2.99854 7.94801C3.37816 7.80696 3.78311 7.71927 4.21051 7.71927H35.7895V7.71934ZM31.6667 1.84214C32.7811 1.84214 33.6842 2.7453 33.6842 3.85967C33.6842 4.97404 32.7811 5.8772 31.6667 5.8772C30.5523 5.8772 29.6492 4.97404 29.6492 3.85967C29.6492 2.7453 30.5522 1.84214 31.6667 1.84214ZM25.3509 1.84214C26.4653 1.84214 27.3684 2.7453 27.3684 3.85967C27.3684 4.97404 26.4652 5.8772 25.3509 5.8772C24.2365 5.8772 23.3333 4.97404 23.3333 3.85967C23.3333 2.7453 24.2365 1.84214 25.3509 1.84214ZM17.5438 2.1053H21.0526V3.50881H17.5438V2.1053ZM17.5438 4.91232H21.0526V6.31583H17.5438V4.91232Z" fill="#524A79"/>
<path d="M4.10515 39.7522H35.6841C36.8448 39.7522 37.7894 38.8077 37.7894 37.6469V10.9803C37.7894 10.701 37.7318 10.4351 37.6329 10.1908C37.6069 10.1263 37.5711 10.0667 37.5388 10.0056C37.4589 9.85407 37.3634 9.71434 37.2504 9.58738C37.1866 9.5151 37.1171 9.44912 37.0441 9.38667C37.023 9.54386 36.9921 9.69893 36.9549 9.8526C36.877 10.174 36.764 10.4842 36.6173 10.7712C36.5851 10.8351 36.5528 10.8989 36.517 10.96C36.0307 11.7916 35.2412 12.3838 34.1739 12.3838H7.01888C6.10661 12.3838 5.18657 11.9087 4.50239 11.2077C4.45183 11.1557 4.4034 11.1024 4.35503 11.0477C4.06098 10.715 3.82166 10.3389 3.6561 9.94316C3.52768 9.63721 3.4449 9.31996 3.41753 9C3.24837 9.05893 3.08626 9.13121 2.94037 9.22874C2.81334 9.31365 2.69827 9.41258 2.5923 9.52207C2.53337 9.58313 2.48215 9.65049 2.43092 9.71786C2.16424 10.0709 2 10.5052 2 10.9803V37.647C1.99993 38.8077 2.94448 39.7522 4.10515 39.7522ZM20.0118 15.3663C26.0097 15.3663 30.889 20.2456 30.889 26.2435C30.889 32.2415 26.0098 37.1208 20.0118 37.1208C14.014 37.1208 9.13467 32.2415 9.13467 26.2435C9.13467 20.2456 14.0139 15.3663 20.0118 15.3663Z" fill="#524A79"/>
<path d="M7.12419 11.2273H34.0351H34.2793C34.4119 11.2273 34.5341 11.2056 34.6484 11.167C35.3986 10.915 35.7537 9.91082 35.7832 9.12207H4.92627C5.00274 10.1283 6.12555 11.2273 7.12419 11.2273Z" fill="#524A79"/>
<path d="M20.1171 35.2631C24.9544 35.2631 28.889 31.3283 28.889 26.4912C28.889 21.654 24.9544 17.7192 20.1171 17.7192C15.28 17.7192 11.3452 21.654 11.3452 26.4912C11.3452 31.3283 15.28 35.2631 20.1171 35.2631ZM24.3565 21.8568C24.9459 21.8568 25.4238 22.3346 25.4238 22.9241C25.4238 23.5136 24.9459 23.9915 24.3565 23.9915C23.767 23.9915 23.2891 23.5136 23.2891 22.9241C23.2898 22.3346 23.7669 21.8568 24.3565 21.8568ZM20.8477 19.7514C21.4371 19.7514 21.915 20.2293 21.915 20.8188C21.915 21.4083 21.4371 21.8862 20.8477 21.8862C20.2582 21.8862 19.7803 21.4083 19.7803 20.8188C19.781 20.2293 20.2582 19.7514 20.8477 19.7514ZM13.6617 25.4897C14.3951 24.9451 15.7719 24.1536 17.5852 24.1711C18.9144 24.1838 19.5719 24.6581 20.2379 25.1508C20.2295 25.089 20.2189 25.028 20.2189 24.9641C20.2189 24.1929 20.8442 23.5677 21.6154 23.5677C22.3867 23.5677 23.0118 24.1929 23.0118 24.9641C23.0118 25.4785 22.7311 25.9227 22.3171 26.1648C22.5957 26.2182 22.9038 26.2525 23.2589 26.2588C25.1431 26.2918 25.9943 25.3254 26.3718 24.5809C26.5565 25.1858 26.6575 25.8266 26.6575 26.4918C26.6575 30.1037 23.7297 33.0314 20.1179 33.0314C16.5059 33.0314 13.5782 30.1037 13.5782 26.4918C13.5768 26.1493 13.6112 25.8167 13.6617 25.4897Z" fill="#524A79"/>
</svg>
